<mxfile host="app.diagrams.net" modified="2024-04-26T05:47:00.609Z" agent="Mozilla/5.0 (Windows NT 10.0; Win64; x64) AppleWebKit/537.36 (KHTML, like Gecko) Chrome/124.0.0.0 Safari/537.36" version="24.3.0" etag="5PDsskrWbnCqMtm1F8gZ" type="github">
  <diagram name="Page-1" id="ia5hdbC0dCjHZVDA8siw">
    <mxGraphModel>
      <root>
        <mxCell id="0" />
        <mxCell id="1" parent="0" />
      </root>
    </mxGraphModel>
  </diagram>
</mxfile>
